# xmcd CD database file
#
# Track frame offsets:
#	150
#	27851
#	51346
#	64961
#	98879
#	118338
#	146624
#	171432
#	197433
#	220330
#	240734
#	256871
#
# Disc length: 3858 seconds
#
# Revision: 0
# Processed by: cddbd v1.5PL3 Copyright (c) Steve Scherf et al.
# Submitted via: CDex 1.51
#
DISCID=b50f100c
DTITLE=Noel Okimoto - 'Ohana
DYEAR=2003
DGENRE=Jazz
TTITLE0=Siete Noches
TTITLE1=Cinder Cone
TTITLE2=Ohana
TTITLE3=You Buggah
TTITLE4=Liane
TTITLE5=Myochlonic Jerk
TTITLE6=Ehukai
TTITLE7=Tropi Jazz
TTITLE8=San Francisco Rain
TTITLE9=Pop's Bop
TTITLE10=Displaced
TTITLE11=Out Take
EXTD=YEAR: 2003
EXTT0=
EXTT1=
EXTT2=
EXTT3=
EXTT4=
EXTT5=
EXTT6=
EXTT7=
EXTT8=
EXTT9=
EXTT10=
EXTT11=
PLAYORDER=
